<?xml version="1.0" encoding="UTF-8" standalone="no"?>
<svg
   width="128"
   height="128"
   version="1.1"
   id="svg6"
   sodipodi:docname="icon.svg"
   inkscape:version="1.3 (0e150ed6c4, 2023-07-21)"
   xmlns:inkscape="http://www.inkscape.org/namespaces/inkscape"
   xmlns:sodipodi="http://sodipodi.sourceforge.net/DTD/sodipodi-0.dtd"
   xmlns="http://www.w3.org/2000/svg"
   xmlns:svg="http://www.w3.org/2000/svg">
  <defs
     id="defs6" />
  <sodipodi:namedview
     id="namedview6"
     pagecolor="#ffffff"
     bordercolor="#666666"
     borderopacity="1.0"
     inkscape:showpageshadow="2"
     inkscape:pageopacity="0.0"
     inkscape:pagecheckerboard="0"
     inkscape:deskcolor="#d1d1d1"
     inkscape:zoom="1.6269531"
     inkscape:cx="41.488595"
     inkscape:cy="-80.82593"
     inkscape:window-width="1920"
     inkscape:window-height="1009"
     inkscape:window-x="-8"
     inkscape:window-y="-8"
     inkscape:window-maximized="1"
     inkscape:current-layer="svg6" />
  <rect
     width="124"
     height="124"
     x="2"
     y="2"
     fill="#363d52"
     stroke="#212532"
     stroke-width="4"
     rx="14"
     id="rect1" />
  <path
     style="fill:#b54e25;stroke-width:0.21556"
     d="m 117.02098,16.420163 c 1.89437,-1.894351 1.89437,-4.966314 0,-6.8606653 -1.89477,-1.894782 -4.9663,-1.894782 -6.86066,0 C 108.26597,11.454281 57.754395,61.965432 57.754395,61.965432 l 6.860663,6.860663 c 0,0 50.511362,-50.51115 52.405922,-52.405932 z"
     id="path1" />
  <path
     style="fill:#fab352;stroke-width:0.21556"
     d="M 61.184835,75.686976 74.906596,68.82631 57.75461,51.674326 50.893945,65.396087 8.0744473,84.202073 c 0,6.120856 1.605069,11.865996 4.4142627,16.841147 l 10.961715,2.08706 2.087061,10.96172 c 4.974937,2.80897 10.720289,4.41383 16.840931,4.41383 z"
     id="path2" />
  <path
     style="fill:#fcd197;stroke-width:0.21556"
     d="M 25.537271,114.09178 57.754179,72.256537 54.323739,68.826095 12.48871,101.04322 c 3.076702,5.44895 7.599606,9.97186 13.048561,13.04856 z"
     id="path3" />
  <path
     style="fill:#c16c49;stroke-width:0.21556"
     d="m 62.899623,79.221102 c -0.465397,0 -0.931225,-0.177623 -1.286468,-0.532867 L 47.891609,64.966689 c -0.710489,-0.710489 -0.710489,-1.862447 0,-2.572722 0.710706,-0.71049 1.862449,-0.71049 2.572938,0 l 13.721546,13.721545 c 0.710489,0.710489 0.710489,1.862447 0,2.572723 -0.355246,0.355459 -0.820858,0.532867 -1.28647,0.532867 z"
     id="path4" />
  <path
     sodipodi:type="star"
     style="fill:#ff52eb;fill-opacity:1;stroke-width:1.13386;stroke-linecap:round;stroke-linejoin:round"
     id="path7"
     inkscape:flatsided="false"
     sodipodi:sides="4"
     sodipodi:cx="-47.942375"
     sodipodi:cy="-60.849941"
     sodipodi:r1="28.032164"
     sodipodi:r2="7.8387289"
     sodipodi:arg1="0.90975316"
     sodipodi:arg2="1.6756985"
     inkscape:rounded="0"
     inkscape:randomized="0"
     d="m -30.732291,-38.722691 -18.030877,-14.331612 -21.306458,9.414445 14.331613,-18.030876 -9.414446,-21.306458 18.030876,14.331613 21.306458,-9.414446 -14.331612,18.030876 z"
     transform="matrix(0.49999999,0,0,0.49999999,49.17167,55.010803)" />
  <path
     sodipodi:type="star"
     style="fill:#ff52eb;fill-opacity:1;stroke-width:1.13386;stroke-linecap:round;stroke-linejoin:round"
     id="path8"
     inkscape:flatsided="false"
     sodipodi:sides="4"
     sodipodi:cx="-47.942375"
     sodipodi:cy="-60.849941"
     sodipodi:r1="28.032164"
     sodipodi:r2="7.8387289"
     sodipodi:arg1="0.90975316"
     sodipodi:arg2="1.6756985"
     inkscape:rounded="0"
     inkscape:randomized="0"
     d="m -30.732291,-38.722691 -18.030877,-14.331612 -21.306458,9.414445 14.331613,-18.030876 -9.414446,-21.306458 18.030876,14.331613 21.306458,-9.414446 -14.331612,18.030876 z"
     transform="matrix(0.49999999,0,0,0.49999999,49.786316,81.440575)" />
  <path
     sodipodi:type="star"
     style="fill:#ff52eb;fill-opacity:1;stroke-width:1.13386;stroke-linecap:round;stroke-linejoin:round"
     id="path9"
     inkscape:flatsided="false"
     sodipodi:sides="4"
     sodipodi:cx="-47.942375"
     sodipodi:cy="-60.849941"
     sodipodi:r1="28.032164"
     sodipodi:r2="7.8387289"
     sodipodi:arg1="0.90975316"
     sodipodi:arg2="1.6756985"
     inkscape:rounded="0"
     inkscape:randomized="0"
     d="m -30.732291,-38.722691 -18.030877,-14.331612 -21.306458,9.414445 14.331613,-18.030876 -9.414446,-21.306458 18.030876,14.331613 21.306458,-9.414446 -14.331612,18.030876 z"
     transform="matrix(0.49999999,0,0,0.49999999,89.123651,56.854741)" />
  <path
     sodipodi:type="star"
     style="fill:#ff52eb;fill-opacity:1;stroke-width:1.13386;stroke-linecap:round;stroke-linejoin:round"
     id="path10"
     inkscape:flatsided="false"
     sodipodi:sides="4"
     sodipodi:cx="-47.942375"
     sodipodi:cy="-60.849941"
     sodipodi:r1="28.032164"
     sodipodi:r2="7.8387289"
     sodipodi:arg1="0.90975316"
     sodipodi:arg2="1.6756985"
     inkscape:rounded="0"
     inkscape:randomized="0"
     d="m -30.732291,-38.722691 -18.030877,-14.331612 -21.306458,9.414445 14.331613,-18.030876 -9.414446,-21.306458 18.030876,14.331613 21.306458,-9.414446 -14.331612,18.030876 z"
     transform="matrix(0.49999999,0,0,0.49999999,128.46099,90.045617)" />
  <path
     sodipodi:type="star"
     style="fill:#ff52eb;fill-opacity:1;stroke-width:1.13386;stroke-linecap:round;stroke-linejoin:round"
     id="path11"
     inkscape:flatsided="false"
     sodipodi:sides="4"
     sodipodi:cx="-47.942375"
     sodipodi:cy="-60.849941"
     sodipodi:r1="28.032164"
     sodipodi:r2="7.8387289"
     sodipodi:arg1="0.90975316"
     sodipodi:arg2="1.6756985"
     inkscape:rounded="0"
     inkscape:randomized="0"
     d="m -30.732291,-38.722691 -18.030877,-14.331612 -21.306458,9.414445 14.331613,-18.030876 -9.414446,-21.306458 18.030876,14.331613 21.306458,-9.414446 -14.331612,18.030876 z"
     transform="matrix(0.49999999,0,0,0.49999999,97.114051,134.30012)" />
  <path
     sodipodi:type="star"
     style="fill:#ff52eb;fill-opacity:1;stroke-width:1.13386;stroke-linecap:round;stroke-linejoin:round"
     id="path12"
     inkscape:flatsided="false"
     sodipodi:sides="4"
     sodipodi:cx="-47.942375"
     sodipodi:cy="-60.849941"
     sodipodi:r1="28.032164"
     sodipodi:r2="7.8387289"
     sodipodi:arg1="0.90975316"
     sodipodi:arg2="1.6756985"
     inkscape:rounded="0"
     inkscape:randomized="0"
     d="m -30.732291,-38.722691 -18.030877,-14.331612 -21.306458,9.414445 14.331613,-18.030876 -9.414446,-21.306458 18.030876,14.331613 21.306458,-9.414446 -14.331612,18.030876 z"
     transform="matrix(0.49999999,0,0,0.49999999,126.00241,126.30972)" />
</svg>
